<svg width="220" height="65" viewBox="0 0 220 65" fill="none" xmlns="http://www.w3.org/2000/svg">
<path d="M47.152 48.432C45.936 48.432 45.008 48.096 44.368 47.424C43.728 46.752 43.408 45.808 43.408 44.592V17.568C43.408 16.352 43.728 15.408 44.368 14.736C45.008 14.064 45.936 13.728 47.152 13.728C48.336 13.728 49.248 14.064 49.888 14.736C50.528 15.408 50.848 16.352 50.848 17.568V44.592C50.848 45.808 50.528 46.752 49.888 47.424C49.28 48.096 48.368 48.432 47.152 48.432ZM61.546 48C60.298 48 59.338 47.664 58.666 46.992C57.994 46.32 57.658 45.36 57.658 44.112V18.048C57.658 16.8 57.994 15.84 58.666 15.168C59.338 14.496 60.298 14.16 61.546 14.16H70.906C76.698 14.16 81.162 15.632 84.298 18.576C87.466 21.488 89.05 25.648 89.05 31.056C89.05 33.776 88.634 36.192 87.802 38.304C87.002 40.384 85.834 42.144 84.298 43.584C82.762 45.024 80.874 46.128 78.634 46.896C76.394 47.632 73.818 48 70.906 48H61.546ZM65.098 41.904H70.474C72.298 41.904 73.882 41.68 75.226 41.232C76.57 40.784 77.69 40.112 78.586 39.216C79.482 38.32 80.154 37.2 80.602 35.856C81.05 34.48 81.274 32.88 81.274 31.056C81.274 27.408 80.362 24.704 78.538 22.944C76.746 21.152 74.058 20.256 70.474 20.256H65.098V41.904ZM111.246 48.528C107.598 48.528 104.478 47.808 101.886 46.368C99.2939 44.928 97.2939 42.912 95.8859 40.32C94.5099 37.696 93.8219 34.608 93.8219 31.056C93.8219 28.4 94.2059 26.016 94.9739 23.904C95.7739 21.76 96.9259 19.936 98.4299 18.432C99.9339 16.896 101.758 15.712 103.902 14.88C106.078 14.048 108.526 13.632 111.246 13.632C112.846 13.632 114.462 13.84 116.094 14.256C117.758 14.64 119.198 15.2 120.414 15.936C121.214 16.384 121.758 16.944 122.046 17.616C122.334 18.288 122.414 18.96 122.286 19.632C122.19 20.304 121.918 20.88 121.47 21.36C121.054 21.84 120.526 22.144 119.886 22.272C119.246 22.4 118.526 22.256 117.726 21.84C116.766 21.264 115.758 20.848 114.702 20.592C113.646 20.336 112.574 20.208 111.486 20.208C109.342 20.208 107.534 20.64 106.062 21.504C104.622 22.336 103.534 23.552 102.798 25.152C102.062 26.752 101.694 28.72 101.694 31.056C101.694 33.36 102.062 35.328 102.798 36.96C103.534 38.592 104.622 39.84 106.062 40.704C107.534 41.536 109.342 41.952 111.486 41.952C112.51 41.952 113.55 41.824 114.606 41.568C115.694 41.312 116.734 40.912 117.726 40.368C118.558 39.952 119.294 39.808 119.934 39.936C120.606 40.032 121.15 40.32 121.566 40.8C122.014 41.248 122.286 41.792 122.382 42.432C122.51 43.072 122.446 43.712 122.19 44.352C121.934 44.992 121.454 45.536 120.75 45.984C119.566 46.784 118.11 47.408 116.382 47.856C114.654 48.304 112.942 48.528 111.246 48.528ZM127.993 48.432C127.097 48.432 126.361 48.224 125.785 47.808C125.241 47.392 124.889 46.832 124.729 46.128C124.601 45.424 124.745 44.64 125.161 43.776L137.449 16.848C137.961 15.76 138.569 14.976 139.273 14.496C139.977 13.984 140.793 13.728 141.721 13.728C142.649 13.728 143.465 13.984 144.169 14.496C144.873 14.976 145.465 15.76 145.945 16.848L158.329 43.776C158.745 44.64 158.889 45.44 158.761 46.176C158.665 46.88 158.345 47.44 157.801 47.856C157.257 48.24 156.553 48.432 155.689 48.432C154.601 48.432 153.753 48.176 153.145 47.664C152.569 47.152 152.057 46.352 151.609 45.264L148.729 38.592L151.705 40.656H131.689L134.665 38.592L131.833 45.264C131.353 46.384 130.841 47.2 130.297 47.712C129.785 48.192 129.017 48.432 127.993 48.432ZM141.625 22.08L135.481 36.72L134.185 34.848H149.209L147.913 36.72L141.721 22.08H141.625ZM174.848 48.528C173.504 48.528 172.128 48.416 170.72 48.192C169.344 48 168.016 47.712 166.736 47.328C165.488 46.944 164.368 46.464 163.376 45.888C162.672 45.504 162.176 45.008 161.888 44.4C161.6 43.76 161.488 43.12 161.552 42.48C161.648 41.84 161.888 41.28 162.272 40.8C162.688 40.288 163.2 39.968 163.808 39.84C164.448 39.68 165.152 39.792 165.92 40.176C167.232 40.912 168.656 41.456 170.192 41.808C171.76 42.16 173.312 42.336 174.848 42.336C177.184 42.336 178.848 41.984 179.84 41.28C180.832 40.544 181.328 39.632 181.328 38.544C181.328 37.616 180.976 36.88 180.272 36.336C179.568 35.792 178.336 35.328 176.576 34.944L171.152 33.792C168.08 33.152 165.792 32.064 164.288 30.528C162.816 28.96 162.08 26.912 162.08 24.384C162.08 22.784 162.416 21.328 163.088 20.016C163.76 18.704 164.704 17.568 165.92 16.608C167.136 15.648 168.576 14.912 170.24 14.4C171.936 13.888 173.792 13.632 175.808 13.632C177.6 13.632 179.36 13.856 181.088 14.304C182.816 14.72 184.336 15.344 185.648 16.176C186.288 16.56 186.72 17.056 186.944 17.664C187.2 18.24 187.28 18.832 187.184 19.44C187.12 20.016 186.88 20.528 186.464 20.976C186.08 21.424 185.584 21.712 184.976 21.84C184.368 21.968 183.632 21.824 182.768 21.408C181.712 20.864 180.592 20.464 179.408 20.208C178.224 19.952 177.008 19.824 175.76 19.824C174.416 19.824 173.264 20 172.304 20.352C171.376 20.704 170.656 21.2 170.144 21.84C169.664 22.48 169.424 23.216 169.424 24.048C169.424 24.976 169.76 25.728 170.432 26.304C171.104 26.88 172.272 27.344 173.936 27.696L179.36 28.848C182.496 29.52 184.832 30.608 186.368 32.112C187.904 33.584 188.672 35.536 188.672 37.968C188.672 39.568 188.352 41.024 187.712 42.336C187.072 43.616 186.144 44.72 184.928 45.648C183.712 46.576 182.256 47.296 180.56 47.808C178.864 48.288 176.96 48.528 174.848 48.528ZM204.607 48.432C203.391 48.432 202.463 48.096 201.823 47.424C201.183 46.752 200.863 45.808 200.863 44.592V20.304H192.367C191.375 20.304 190.607 20.032 190.063 19.488C189.519 18.944 189.247 18.192 189.247 17.232C189.247 16.24 189.519 15.488 190.063 14.976C190.607 14.432 191.375 14.16 192.367 14.16H216.799C217.791 14.16 218.559 14.432 219.103 14.976C219.647 15.488 219.919 16.24 219.919 17.232C219.919 18.192 219.647 18.944 219.103 19.488C218.559 20.032 217.791 20.304 216.799 20.304H208.303V44.592C208.303 45.808 207.983 46.752 207.343 47.424C206.735 48.096 205.823 48.432 204.607 48.432Z" fill="url(#paint0_linear_166_791)"/>
<path d="M22.7925 47.3778C22.0582 48.8617 19.9418 48.8617 19.2075 47.3778L4.2422 17.1371C3.58436 15.8078 4.55154 14.25 6.03471 14.25L35.9653 14.25C37.4485 14.25 38.4156 15.8078 37.7578 17.1371L22.7925 47.3778Z" fill="url(#paint1_linear_166_791)"/>
<path d="M22.7709 34.626C22.0217 36.0534 19.9783 36.0534 19.2291 34.626L13.8773 24.4295C13.1783 23.0977 14.1442 21.5 15.6482 21.5L26.3518 21.5C27.8558 21.5 28.8217 23.0977 28.1227 24.4295L22.7709 34.626Z" fill="white"/>
<defs>
<linearGradient id="paint0_linear_166_791" x1="40" y1="32.5" x2="220" y2="32.5" gradientUnits="userSpaceOnUse">
<stop offset="0.25" stop-color="#0065EA"/>
<stop offset="0.75" stop-color="#E62222"/>
</linearGradient>
<linearGradient id="paint1_linear_166_791" x1="42" y1="26.5" x2="0" y2="26.5" gradientUnits="userSpaceOnUse">
<stop offset="0.265" stop-color="#0065EA"/>
<stop offset="0.658654" stop-color="#E62222"/>
</linearGradient>
</defs>
</svg>
